<svg width="214" height="32" viewBox="0 0 214 32" fill="none" xmlns="http://www.w3.org/2000/svg">
<rect width="214" height="32" rx="8" fill="#212121"/>
<path d="M19.56 13.1C19.2 12.4067 18.7 11.8867 18.06 11.54C17.42 11.18 16.68 11 15.84 11C14.92 11 14.1 11.2067 13.38 11.62C12.66 12.0333 12.0933 12.62 11.68 13.38C11.28 14.14 11.08 15.02 11.08 16.02C11.08 17.02 11.28 17.9067 11.68 18.68C12.0933 19.44 12.66 20.0267 13.38 20.44C14.1 20.8533 14.92 21.06 15.84 21.06C17.08 21.06 18.0867 20.7133 18.86 20.02C19.6333 19.3267 20.1067 18.3867 20.28 17.2H15.06V15.38H22.72V17.16C22.5733 18.24 22.1867 19.2333 21.56 20.14C20.9467 21.0467 20.14 21.7733 19.14 22.32C18.1533 22.8533 17.0533 23.12 15.84 23.12C14.5333 23.12 13.34 22.82 12.26 22.22C11.18 21.6067 10.32 20.76 9.68 19.68C9.05333 18.6 8.74 17.38 8.74 16.02C8.74 14.66 9.05333 13.44 9.68 12.36C10.32 11.28 11.18 10.44 12.26 9.84C13.3533 9.22667 14.5467 8.92 15.84 8.92C17.32 8.92 18.6333 9.28667 19.78 10.02C20.94 10.74 21.78 11.7667 22.3 13.1H19.56ZM29.7488 23.18C28.7088 23.18 27.7688 22.9467 26.9288 22.48C26.0888 22 25.4288 21.3333 24.9488 20.48C24.4688 19.6133 24.2288 18.6133 24.2288 17.48C24.2288 16.36 24.4754 15.3667 24.9688 14.5C25.4621 13.6333 26.1354 12.9667 26.9888 12.5C27.8421 12.0333 28.7954 11.8 29.8488 11.8C30.9021 11.8 31.8554 12.0333 32.7088 12.5C33.5621 12.9667 34.2354 13.6333 34.7288 14.5C35.2221 15.3667 35.4688 16.36 35.4688 17.48C35.4688 18.6 35.2154 19.5933 34.7088 20.46C34.2021 21.3267 33.5088 22 32.6288 22.48C31.7621 22.9467 30.8021 23.18 29.7488 23.18ZM29.7488 21.2C30.3354 21.2 30.8821 21.06 31.3888 20.78C31.9088 20.5 32.3288 20.08 32.6488 19.52C32.9688 18.96 33.1288 18.28 33.1288 17.48C33.1288 16.68 32.9754 16.0067 32.6688 15.46C32.3621 14.9 31.9554 14.48 31.4488 14.2C30.9421 13.92 30.3954 13.78 29.8088 13.78C29.2221 13.78 28.6754 13.92 28.1688 14.2C27.6754 14.48 27.2821 14.9 26.9888 15.46C26.6954 16.0067 26.5488 16.68 26.5488 17.48C26.5488 18.6667 26.8488 19.5867 27.4488 20.24C28.0621 20.88 28.8288 21.2 29.7488 21.2ZM40.0027 8.2V23H37.7227V8.2H40.0027ZM42.2361 17.44C42.2361 16.3333 42.4628 15.3533 42.9161 14.5C43.3828 13.6467 44.0094 12.9867 44.7961 12.52C45.5961 12.04 46.4828 11.8 47.4561 11.8C48.1761 11.8 48.8828 11.96 49.5761 12.28C50.2828 12.5867 50.8428 13 51.2561 13.52V8.2H53.5561V23H51.2561V21.34C50.8828 21.8733 50.3628 22.3133 49.6961 22.66C49.0428 23.0067 48.2894 23.18 47.4361 23.18C46.4761 23.18 45.5961 22.94 44.7961 22.46C44.0094 21.9667 43.3828 21.2867 42.9161 20.42C42.4628 19.54 42.2361 18.5467 42.2361 17.44ZM51.2561 17.48C51.2561 16.72 51.0961 16.06 50.7761 15.5C50.4694 14.94 50.0628 14.5133 49.5561 14.22C49.0494 13.9267 48.5028 13.78 47.9161 13.78C47.3294 13.78 46.7828 13.9267 46.2761 14.22C45.7694 14.5 45.3561 14.92 45.0361 15.48C44.7294 16.0267 44.5761 16.68 44.5761 17.44C44.5761 18.2 44.7294 18.8667 45.0361 19.44C45.3561 20.0133 45.7694 20.4533 46.2761 20.76C46.7961 21.0533 47.3428 21.2 47.9161 21.2C48.5028 21.2 49.0494 21.0533 49.5561 20.76C50.0628 20.4667 50.4694 20.04 50.7761 19.48C51.0961 18.9067 51.2561 18.24 51.2561 17.48ZM66.6508 17.22C66.6508 17.6333 66.6241 18.0067 66.5708 18.34H58.1508C58.2174 19.22 58.5441 19.9267 59.1308 20.46C59.7174 20.9933 60.4374 21.26 61.2908 21.26C62.5174 21.26 63.3841 20.7467 63.8908 19.72H66.3508C66.0174 20.7333 65.4108 21.5667 64.5308 22.22C63.6641 22.86 62.5841 23.18 61.2908 23.18C60.2374 23.18 59.2908 22.9467 58.4508 22.48C57.6241 22 56.9708 21.3333 56.4908 20.48C56.0241 19.6133 55.7908 18.6133 55.7908 17.48C55.7908 16.3467 56.0174 15.3533 56.4708 14.5C56.9374 13.6333 57.5841 12.9667 58.4108 12.5C59.2508 12.0333 60.2108 11.8 61.2908 11.8C62.3308 11.8 63.2574 12.0267 64.0708 12.48C64.8841 12.9333 65.5174 13.5733 65.9708 14.4C66.4241 15.2133 66.6508 16.1533 66.6508 17.22ZM64.2708 16.5C64.2574 15.66 63.9574 14.9867 63.3708 14.48C62.7841 13.9733 62.0574 13.72 61.1908 13.72C60.4041 13.72 59.7308 13.9733 59.1708 14.48C58.6108 14.9733 58.2774 15.6467 58.1708 16.5H64.2708ZM74.4545 11.8C75.3212 11.8 76.0945 11.98 76.7745 12.34C77.4679 12.7 78.0079 13.2333 78.3945 13.94C78.7812 14.6467 78.9745 15.5 78.9745 16.5V23H76.7145V16.84C76.7145 15.8533 76.4679 15.1 75.9745 14.58C75.4812 14.0467 74.8079 13.78 73.9545 13.78C73.1012 13.78 72.4212 14.0467 71.9145 14.58C71.4212 15.1 71.1745 15.8533 71.1745 16.84V23H68.8945V11.98H71.1745V13.24C71.5479 12.7867 72.0212 12.4333 72.5945 12.18C73.1812 11.9267 73.8012 11.8 74.4545 11.8ZM97.1381 13.1C96.7781 12.4067 96.2781 11.8867 95.6381 11.54C94.9981 11.18 94.2581 11 93.4181 11C92.4981 11 91.6781 11.2067 90.9581 11.62C90.2381 12.0333 89.6715 12.62 89.2581 13.38C88.8581 14.14 88.6581 15.02 88.6581 16.02C88.6581 17.02 88.8581 17.9067 89.2581 18.68C89.6715 19.44 90.2381 20.0267 90.9581 20.44C91.6781 20.8533 92.4981 21.06 93.4181 21.06C94.6581 21.06 95.6648 20.7133 96.4381 20.02C97.2115 19.3267 97.6848 18.3867 97.8581 17.2H92.6381V15.38H100.298V17.16C100.151 18.24 99.7648 19.2333 99.1381 20.14C98.5248 21.0467 97.7181 21.7733 96.7181 22.32C95.7315 22.8533 94.6315 23.12 93.4181 23.12C92.1115 23.12 90.9181 22.82 89.8381 22.22C88.7581 21.6067 87.8981 20.76 87.2581 19.68C86.6315 18.6 86.3181 17.38 86.3181 16.02C86.3181 14.66 86.6315 13.44 87.2581 12.36C87.8981 11.28 88.7581 10.44 89.8381 9.84C90.9315 9.22667 92.1248 8.92 93.4181 8.92C94.8981 8.92 96.2115 9.28667 97.3581 10.02C98.5181 10.74 99.3581 11.7667 99.8781 13.1H97.1381ZM101.787 17.44C101.787 16.3333 102.014 15.3533 102.467 14.5C102.934 13.6467 103.56 12.9867 104.347 12.52C105.147 12.04 106.027 11.8 106.987 11.8C107.854 11.8 108.607 11.9733 109.247 12.32C109.9 12.6533 110.42 13.0733 110.807 13.58V11.98H113.107V23H110.807V21.36C110.42 21.88 109.894 22.3133 109.227 22.66C108.56 23.0067 107.8 23.18 106.947 23.18C106 23.18 105.134 22.94 104.347 22.46C103.56 21.9667 102.934 21.2867 102.467 20.42C102.014 19.54 101.787 18.5467 101.787 17.44ZM110.807 17.48C110.807 16.72 110.647 16.06 110.327 15.5C110.02 14.94 109.614 14.5133 109.107 14.22C108.6 13.9267 108.054 13.78 107.467 13.78C106.88 13.78 106.334 13.9267 105.827 14.22C105.32 14.5 104.907 14.92 104.587 15.48C104.28 16.0267 104.127 16.68 104.127 17.44C104.127 18.2 104.28 18.8667 104.587 19.44C104.907 20.0133 105.32 20.4533 105.827 20.76C106.347 21.0533 106.894 21.2 107.467 21.2C108.054 21.2 108.6 21.0533 109.107 20.76C109.614 20.4667 110.02 20.04 110.327 19.48C110.647 18.9067 110.807 18.24 110.807 17.48ZM118.762 13.84V19.94C118.762 20.3533 118.855 20.6533 119.042 20.84C119.242 21.0133 119.575 21.1 120.042 21.1H121.442V23H119.642C118.615 23 117.828 22.76 117.282 22.28C116.735 21.8 116.462 21.02 116.462 19.94V13.84H115.162V11.98H116.462V9.24H118.762V11.98H121.442V13.84H118.762ZM133.643 17.22C133.643 17.6333 133.616 18.0067 133.563 18.34H125.143C125.21 19.22 125.536 19.9267 126.123 20.46C126.71 20.9933 127.43 21.26 128.283 21.26C129.51 21.26 130.376 20.7467 130.883 19.72H133.343C133.01 20.7333 132.403 21.5667 131.523 22.22C130.656 22.86 129.576 23.18 128.283 23.18C127.23 23.18 126.283 22.9467 125.443 22.48C124.616 22 123.963 21.3333 123.483 20.48C123.016 19.6133 122.783 18.6133 122.783 17.48C122.783 16.3467 123.01 15.3533 123.463 14.5C123.93 13.6333 124.576 12.9667 125.403 12.5C126.243 12.0333 127.203 11.8 128.283 11.8C129.323 11.8 130.25 12.0267 131.063 12.48C131.876 12.9333 132.51 13.5733 132.963 14.4C133.416 15.2133 133.643 16.1533 133.643 17.22ZM131.263 16.5C131.25 15.66 130.95 14.9867 130.363 14.48C129.776 13.9733 129.05 13.72 128.183 13.72C127.396 13.72 126.723 13.9733 126.163 14.48C125.603 14.9733 125.27 15.6467 125.163 16.5H131.263ZM143.362 13.62C143.749 13.0867 144.275 12.6533 144.942 12.32C145.622 11.9733 146.375 11.8 147.202 11.8C148.175 11.8 149.055 12.0333 149.842 12.5C150.629 12.9667 151.249 13.6333 151.702 14.5C152.155 15.3533 152.382 16.3333 152.382 17.44C152.382 18.5467 152.155 19.54 151.702 20.42C151.249 21.2867 150.622 21.9667 149.822 22.46C149.035 22.94 148.162 23.18 147.202 23.18C146.349 23.18 145.589 23.0133 144.922 22.68C144.269 22.3467 143.749 21.92 143.362 21.4V23H141.082V8.2H143.362V13.62ZM150.062 17.44C150.062 16.68 149.902 16.0267 149.582 15.48C149.275 14.92 148.862 14.5 148.342 14.22C147.835 13.9267 147.289 13.78 146.702 13.78C146.129 13.78 145.582 13.9267 145.062 14.22C144.555 14.5133 144.142 14.94 143.822 15.5C143.515 16.06 143.362 16.72 143.362 17.48C143.362 18.24 143.515 18.9067 143.822 19.48C144.142 20.04 144.555 20.4667 145.062 20.76C145.582 21.0533 146.129 21.2 146.702 21.2C147.289 21.2 147.835 21.0533 148.342 20.76C148.862 20.4533 149.275 20.0133 149.582 19.44C149.902 18.8667 150.062 18.2 150.062 17.44ZM156.917 13.58C157.25 13.02 157.69 12.5867 158.237 12.28C158.797 11.96 159.457 11.8 160.217 11.8V14.16H159.637C158.743 14.16 158.063 14.3867 157.597 14.84C157.143 15.2933 156.917 16.08 156.917 17.2V23H154.637V11.98H156.917V13.58ZM163.473 10.52C163.059 10.52 162.713 10.38 162.433 10.1C162.153 9.82 162.013 9.47333 162.013 9.06C162.013 8.64667 162.153 8.3 162.433 8.02C162.713 7.74 163.059 7.6 163.473 7.6C163.873 7.6 164.213 7.74 164.493 8.02C164.773 8.3 164.913 8.64667 164.913 9.06C164.913 9.47333 164.773 9.82 164.493 10.1C164.213 10.38 163.873 10.52 163.473 10.52ZM164.593 11.98V23H162.313V11.98H164.593ZM166.826 17.44C166.826 16.3333 167.053 15.3533 167.506 14.5C167.973 13.6467 168.599 12.9867 169.386 12.52C170.186 12.04 171.073 11.8 172.046 11.8C172.766 11.8 173.473 11.96 174.166 12.28C174.873 12.5867 175.433 13 175.846 13.52V8.2H178.146V23H175.846V21.34C175.473 21.8733 174.953 22.3133 174.286 22.66C173.633 23.0067 172.879 23.18 172.026 23.18C171.066 23.18 170.186 22.94 169.386 22.46C168.599 21.9667 167.973 21.2867 167.506 20.42C167.053 19.54 166.826 18.5467 166.826 17.44ZM175.846 17.48C175.846 16.72 175.686 16.06 175.366 15.5C175.059 14.94 174.653 14.5133 174.146 14.22C173.639 13.9267 173.093 13.78 172.506 13.78C171.919 13.78 171.373 13.9267 170.866 14.22C170.359 14.5 169.946 14.92 169.626 15.48C169.319 16.0267 169.166 16.68 169.166 17.44C169.166 18.2 169.319 18.8667 169.626 19.44C169.946 20.0133 170.359 20.4533 170.866 20.76C171.386 21.0533 171.933 21.2 172.506 21.2C173.093 21.2 173.639 21.0533 174.146 20.76C174.653 20.4667 175.059 20.04 175.366 19.48C175.686 18.9067 175.846 18.24 175.846 17.48ZM185.581 11.8C186.434 11.8 187.187 11.9733 187.841 12.32C188.507 12.6533 189.027 13.0733 189.401 13.58V11.98H191.701V23.18C191.701 24.1933 191.487 25.0933 191.061 25.88C190.634 26.68 190.014 27.3067 189.201 27.76C188.401 28.2133 187.441 28.44 186.321 28.44C184.827 28.44 183.587 28.0867 182.601 27.38C181.614 26.6867 181.054 25.74 180.921 24.54H183.181C183.354 25.1133 183.721 25.5733 184.281 25.92C184.854 26.28 185.534 26.46 186.321 26.46C187.241 26.46 187.981 26.18 188.541 25.62C189.114 25.06 189.401 24.2467 189.401 23.18V21.34C189.014 21.86 188.487 22.3 187.821 22.66C187.167 23.0067 186.421 23.18 185.581 23.18C184.621 23.18 183.741 22.94 182.941 22.46C182.154 21.9667 181.527 21.2867 181.061 20.42C180.607 19.54 180.381 18.5467 180.381 17.44C180.381 16.3333 180.607 15.3533 181.061 14.5C181.527 13.6467 182.154 12.9867 182.941 12.52C183.741 12.04 184.621 11.8 185.581 11.8ZM189.401 17.48C189.401 16.72 189.241 16.06 188.921 15.5C188.614 14.94 188.207 14.5133 187.701 14.22C187.194 13.9267 186.647 13.78 186.061 13.78C185.474 13.78 184.927 13.9267 184.421 14.22C183.914 14.5 183.501 14.92 183.181 15.48C182.874 16.0267 182.721 16.68 182.721 17.44C182.721 18.2 182.874 18.8667 183.181 19.44C183.501 20.0133 183.914 20.4533 184.421 20.76C184.941 21.0533 185.487 21.2 186.061 21.2C186.647 21.2 187.194 21.0533 187.701 20.76C188.207 20.4667 188.614 20.04 188.921 19.48C189.241 18.9067 189.401 18.24 189.401 17.48ZM204.795 17.22C204.795 17.6333 204.769 18.0067 204.715 18.34H196.295C196.362 19.22 196.689 19.9267 197.275 20.46C197.862 20.9933 198.582 21.26 199.435 21.26C200.662 21.26 201.529 20.7467 202.035 19.72H204.495C204.162 20.7333 203.555 21.5667 202.675 22.22C201.809 22.86 200.729 23.18 199.435 23.18C198.382 23.18 197.435 22.9467 196.595 22.48C195.769 22 195.115 21.3333 194.635 20.48C194.169 19.6133 193.935 18.6133 193.935 17.48C193.935 16.3467 194.162 15.3533 194.615 14.5C195.082 13.6333 195.729 12.9667 196.555 12.5C197.395 12.0333 198.355 11.8 199.435 11.8C200.475 11.8 201.402 12.0267 202.215 12.48C203.029 12.9333 203.662 13.5733 204.115 14.4C204.569 15.2133 204.795 16.1533 204.795 17.22ZM202.415 16.5C202.402 15.66 202.102 14.9867 201.515 14.48C200.929 13.9733 200.202 13.72 199.335 13.72C198.549 13.72 197.875 13.9733 197.315 14.48C196.755 14.9733 196.422 15.6467 196.315 16.5H202.415Z" fill="white"/>
</svg>
